<svg xmlns="http://www.w3.org/2000/svg" width="29.004" height="23" viewBox="0 0 7.674 6.085" id="warning"><path d="m 250.49805,380.5 a 0.50004934,0.50004934 0 0 0 -0.50196,0.50195 v 17.9961 a 0.50004934,0.50004934 0 0 0 0.50196,0.50195 h 10.50586 v 2.99609 H 256.5 a 0.49999938,0.49999938 0 0 0 -0.50195,0.50196 A 0.49999938,0.49999938 0 0 0 256.5,403.5 h 15.99609 a 0.49999938,0.49999938 0 0 0 0.50196,-0.50195 0.49999938,0.49999938 0 0 0 -0.50196,-0.50196 h -4.49414 V 399.5 h 10.4961 a 0.50004934,0.50004934 0 0 0 0.0605,-0.004 A 0.50004934,0.50004934 0 0 0 279,398.99805 v -4.00196 -13.99414 A 0.50004934,0.50004934 0 0 0 278.49805,380.5 Z m 0.5039,1.00391 h 26.99414 v 12.99804 h -26.99414 z m 0.98633,0.49414 a 0.49999998,0.49999998 0 0 0 -0.48828,0.5 0.49999998,0.49999998 0 0 0 0.5,0.5 0.49999998,0.49999998 0 0 0 0.5,-0.48828 0.49999998,0.49999998 0 0 0 0.5,0.48828 0.49999998,0.49999998 0 0 0 0.5,-0.48828 0.49999998,0.49999998 0 0 0 0.5,0.48828 0.49999998,0.49999998 0 0 0 0.5,-0.5 0.49999998,0.49999998 0 0 0 -0.5,-0.5 0.49999998,0.49999998 0 0 0 -0.5,0.48828 0.49999998,0.49999998 0 0 0 -0.5,-0.48828 0.49999998,0.49999998 0 0 0 -0.5,0.48828 0.49999998,0.49999998 0 0 0 -0.5,-0.48828 0.49999998,0.49999998 0 0 0 -0.0117,0 z m 4.51172,0 A 0.49999938,0.49999938 0 0 0 255.99805,382.5 0.49999938,0.49999938 0 0 0 256.5,383.00195 h 13 A 0.49999938,0.49999938 0 0 0 270.00195,382.5 0.49999938,0.49999938 0 0 0 269.5,381.99805 Z m 15,0 A 0.49999938,0.49999938 0 0 0 270.99805,382.5 0.49999938,0.49999938 0 0 0 271.5,383.00195 h 4.99805 A 0.49999938,0.49999938 0 0 0 277,382.5 a 0.49999938,0.49999938 0 0 0 -0.50195,-0.50195 z m -7.02734,2 a 0.50004934,0.50004934 0 0 0 -0.41993,0.28125 l -4.49609,8.99804 A 0.50004934,0.50004934 0 0 0 260,394 h 8.99805 a 0.50004934,0.50004934 0 0 0 0.45117,-0.72266 l -4.50391,-8.99804 a 0.50004934,0.50004934 0 0 0 -0.47265,-0.28125 z m 0.0293,1.61718 3.69141,7.38086 h -7.38281 z m 0,1.88086 A 0.49999938,0.49999938 0 0 0 264,387.99805 V 390 a 0.49999938,0.49999938 0 0 0 0.50195,0.50195 A 0.49999938,0.49999938 0 0 0 264.99609,390 v -2.00195 a 0.49999938,0.49999938 0 0 0 -0.49414,-0.50196 z m -0.0137,3.50196 a 0.49999998,0.49999998 0 0 0 -0.48828,0.5 0.49999998,0.49999998 0 0 0 0.5,0.5 0.49999998,0.49999998 0 0 0 0.5,-0.5 0.49999998,0.49999998 0 0 0 -0.5,-0.5 0.49999998,0.49999998 0 0 0 -0.0117,0 z M 251.00195,395.5 h 26.99414 v 2.99609 H 251.00195 Z M 262,399.5 h 4.99805 v 2.99609 H 262 Z" color="#000" font-family="sans-serif" font-weight="400" overflow="visible" transform="translate(-66.145 -100.674) scale(.26458)" style="line-height:normal;font-variant-ligatures:normal;font-variant-position:normal;font-variant-caps:normal;font-variant-numeric:normal;font-variant-alternates:normal;font-variant-east-asian:normal;font-feature-settings:normal;font-variation-settings:normal;text-indent:0;text-align:start;text-decoration-line:none;text-decoration-style:solid;text-decoration-color:#000;text-transform:none;text-orientation:mixed;shape-padding:0;shape-margin:0;inline-size:0;isolation:auto;mix-blend-mode:normal"></path></svg>